name ./resultDataOpenSim/trcMotMarkerGrf/sub09/grf-05-07.mot
datacolumns 19
datarows 22
range 1.02400000 1.10800000
endheader

                time	     ground_force_vx	     ground_force_vy	     ground_force_vz	     ground_force_px	     ground_force_py	     ground_force_pz	   l_ground_force_vx	   l_ground_force_vy	   l_ground_force_vz	   l_ground_force_px	   l_ground_force_py	   l_ground_force_pz	     ground_torque_x	     ground_torque_y	     ground_torque_z	   l_ground_torque_x	   l_ground_torque_y	   l_ground_torque_z	
          1.02400000	          0.00000000	          0.00000000	          0.00000000	          0.00000000	          0.00000000	          0.00000000	         -9.22534113	        373.88257129	          4.81198855	          0.13458836	         -0.10000000	          0.06818366	          0.00000000	          0.00000000	          0.00000000	          0.00000000	         -1.03605688	          0.00000000	
          1.02800000	          0.00000000	          0.00000000	          0.00000000	          0.00000000	          0.00000000	          0.00000000	         -8.30932131	        374.53900665	          4.72067341	          0.13464067	         -0.10000000	          0.06819894	          0.00000000	          0.00000000	          0.00000000	          0.00000000	         -1.21464905	          0.00000000	
          1.03200000	          0.00000000	          0.00000000	          0.00000000	          0.00000000	          0.00000000	          0.00000000	         -7.03672794	        375.87874234	          4.54079808	          0.13455319	         -0.10000000	          0.06815723	          0.00000000	          0.00000000	          0.00000000	          0.00000000	         -1.41777867	          0.00000000	
          1.03600000	          0.00000000	          0.00000000	          0.00000000	          0.00000000	          0.00000000	          0.00000000	         -5.33576159	        377.94022286	          4.32083918	          0.13433671	         -0.10000000	          0.06807730	          0.00000000	          0.00000000	          0.00000000	          0.00000000	         -1.63964058	          0.00000000	
          1.04000000	          0.00000000	          0.00000000	          0.00000000	          0.00000000	          0.00000000	          0.00000000	         -3.17815412	        380.78566222	          4.10363624	          0.13400061	         -0.10000000	          0.06797746	          0.00000000	          0.00000000	          0.00000000	          0.00000000	         -1.87397040	          0.00000000	
          1.04400000	          0.00000000	          0.00000000	          0.00000000	          0.00000000	          0.00000000	          0.00000000	         -0.58815879	        384.48267922	          3.91431870	          0.13358290	         -0.10000000	          0.06788460	          0.00000000	          0.00000000	          0.00000000	          0.00000000	         -2.11514190	          0.00000000	
          1.04800000	          0.00000000	          0.00000000	          0.00000000	          0.00000000	          0.00000000	          0.00000000	          2.37367503	        389.07411713	          3.75396331	          0.13317456	         -0.10000000	          0.06783357	          0.00000000	          0.00000000	          0.00000000	          0.00000000	         -2.35891239	          0.00000000	
          1.05200000	          0.00000000	          0.00000000	          0.00000000	          0.00000000	          0.00000000	          0.00000000	          5.64935006	        394.55547754	          3.60921391	          0.13287539	         -0.10000000	          0.06784917	          0.00000000	          0.00000000	          0.00000000	          0.00000000	         -2.60266417	          0.00000000	
          1.05600000	          0.00000000	          0.00000000	          0.00000000	          0.00000000	          0.00000000	          0.00000000	          9.21136860	        400.88110380	          3.46488437	          0.13274643	         -0.10000000	          0.06792402	          0.00000000	          0.00000000	          0.00000000	          0.00000000	         -2.84516245	          0.00000000	
          1.06000000	          0.00000000	          0.00000000	          0.00000000	          0.00000000	          0.00000000	          0.00000000	         13.04856190	        408.02217982	          3.30735177	          0.13278649	         -0.10000000	          0.06801678	          0.00000000	          0.00000000	          0.00000000	          0.00000000	         -3.08600563	          0.00000000	
          1.06400000	          0.00000000	          0.00000000	          0.00000000	          0.00000000	          0.00000000	          0.00000000	         17.12926209	        416.04766726	          3.12180828	          0.13292388	         -0.10000000	          0.06808486	          0.00000000	          0.00000000	          0.00000000	          0.00000000	         -3.32497397	          0.00000000	
          1.06800000	          0.00000000	          0.00000000	          0.00000000	          0.00000000	          0.00000000	          0.00000000	         21.38946124	        425.14536028	          2.88677573	          0.13306043	         -0.10000000	          0.06811906	          0.00000000	          0.00000000	          0.00000000	          0.00000000	         -3.56139867	          0.00000000	
          1.07200000	          0.00000000	          0.00000000	          0.00000000	          0.00000000	          0.00000000	          0.00000000	         25.75573173	        435.54582241	          2.57374437	          0.13314171	         -0.10000000	          0.06813967	          0.00000000	          0.00000000	          0.00000000	          0.00000000	         -3.79361292	          0.00000000	
          1.07600000	          0.00000000	          0.00000000	          0.00000000	          0.00000000	          0.00000000	          0.00000000	         30.16465896	        447.41961563	          2.16582836	          0.13316353	         -0.10000000	          0.06816809	          0.00000000	          0.00000000	          0.00000000	          0.00000000	         -4.01859844	          0.00000000	
          1.08000000	          0.00000000	          0.00000000	          0.00000000	          0.00000000	          0.00000000	          0.00000000	         34.55792715	        460.85245730	          1.68912138	          0.13313425	         -0.10000000	          0.06819785	          0.00000000	          0.00000000	          0.00000000	          0.00000000	         -4.23202362	          0.00000000	
          1.08400000	          0.00000000	          0.00000000	          0.00000000	          0.00000000	          0.00000000	          0.00000000	         38.87870049	        475.88529632	          1.22325732	          0.13307303	         -0.10000000	          0.06820954	          0.00000000	          0.00000000	          0.00000000	          0.00000000	         -4.42880972	          0.00000000	
          1.08800000	          0.00000000	          0.00000000	          0.00000000	          0.00000000	          0.00000000	          0.00000000	         43.08654775	        492.52366092	          0.87035109	          0.13300501	         -0.10000000	          0.06819574	          0.00000000	          0.00000000	          0.00000000	          0.00000000	         -4.60410385	          0.00000000	
          1.09200000	          0.00000000	          0.00000000	          0.00000000	          0.00000000	          0.00000000	          0.00000000	         47.16950810	        510.71175794	          0.70633654	          0.13294760	         -0.10000000	          0.06815917	          0.00000000	          0.00000000	          0.00000000	          0.00000000	         -4.75423223	          0.00000000	
          1.09600000	          0.00000000	          0.00000000	          0.00000000	          0.00000000	          0.00000000	          0.00000000	         51.13939822	        530.30963343	          0.74977226	          0.13291317	         -0.10000000	          0.06810425	          0.00000000	          0.00000000	          0.00000000	          0.00000000	         -4.87711996	          0.00000000	
          1.10000000	          0.00000000	          0.00000000	          0.00000000	          0.00000000	          0.00000000	          0.00000000	         55.02784036	        551.07224405	          0.96685422	          0.13289978	         -0.10000000	          0.06803461	          0.00000000	          0.00000000	          0.00000000	          0.00000000	         -4.97195294	          0.00000000	
          1.10400000	          0.00000000	          0.00000000	          0.00000000	          0.00000000	          0.00000000	          0.00000000	         58.88677347	        572.64287841	          1.32093906	          0.13291773	         -0.10000000	          0.06795379	          0.00000000	          0.00000000	          0.00000000	          0.00000000	         -5.03838343	          0.00000000	
          1.10800000	          0.00000000	          0.00000000	          0.00000000	          0.00000000	          0.00000000	          0.00000000	         62.78308788	        594.57084031	          1.82460764	          0.13293793	         -0.10000000	          0.06785886	          0.00000000	          0.00000000	          0.00000000	          0.00000000	         -5.07593708	          0.00000000	
